<?xml version="1.0" standalone="no"?>
<!DOCTYPE svg PUBLIC "-//W3C//DTD SVG 20010904//EN"
 "http://www.w3.org/TR/2001/REC-SVG-20010904/DTD/svg10.dtd">
<svg version="1.0" xmlns="http://www.w3.org/2000/svg"
 width="215.000000pt" height="215.000000pt" viewBox="0 0 215.000000 215.000000"
 preserveAspectRatio="xMidYMid meet">
<metadata>
Created by potrace 1.11, written by Peter Selinger 2001-2013
</metadata>
<g transform="translate(0.000000,215.000000) scale(0.100000,-0.100000)"
fill="#000000" stroke="none">
<path d="M8 1738 c-3 -11 -2 -1268 1 -1318 1 -13 126 -15 1063 -15 585 0 1065
3 1068 6 3 4 5 306 4 671 l0 663 -447 3 -446 2 -4 -32 -4 -33 -1 32 -2 33
-194 0 -195 -1 -4 -32 -4 -32 -1 33 c-2 30 -4 32 -41 32 -22 0 -43 -4 -46 -10
-3 -5 1 -10 9 -10 10 0 16 -8 15 -22 0 -21 -1 -22 -8 -3 -8 19 -8 19 -20 0
-11 -20 -12 -20 -10 0 3 42 0 45 -50 45 -49 0 -50 -1 -54 -32 l-4 -33 -1 33
-2 32 -209 0 -210 -1 -4 -32 -4 -32 -1 33 c-2 29 -5 32 -32 32 -27 0 -30 -3
-30 -32 0 -23 -3 -29 -9 -19 -5 7 -6 22 -4 32 3 11 0 19 -6 19 -7 0 -11 -6
-10 -12 1 -7 1 -22 0 -32 -1 -26 -16 -10 -16 17 0 19 -7 22 -41 25 -28 2 -43
-1 -46 -10z m962 -24 c0 -14 -4 -23 -9 -20 -7 5 -8 23 -2 44 4 12 11 -3 11
-24z m46 9 c13 -13 19 -14 22 -5 5 15 32 16 32 1 0 -5 -4 -7 -10 -4 -5 3 -10
0 -10 -8 0 -19 -33 -16 -42 3 -5 12 -7 12 -7 -2 -1 -10 -5 -18 -9 -18 -5 0 -8
10 -6 23 4 34 5 35 30 10z m-834 -27 c7 5 8 2 3 -5 -6 -10 -11 -10 -22 2 -10
10 -12 20 -7 29 7 10 10 7 12 -10 2 -13 8 -20 14 -16z m78 14 c0 -11 -4 -20
-10 -20 -5 0 -10 -4 -10 -10 0 -5 25 -10 55 -10 54 0 55 0 55 30 0 24 4 30 21
30 11 0 17 -5 14 -10 -4 -6 -11 -8 -16 -5 -5 4 -9 2 -9 -4 0 -5 5 -13 11 -17
8 -5 8 -8 0 -14 -7 -3 6 -7 27 -8 37 -2 39 0 38 25 -1 19 5 29 17 31 20 4 25
-34 5 -41 -7 -2 -11 -7 -8 -10 7 -7 28 -10 83 -8 46 1 47 2 47 32 0 24 4 30
17 27 23 -4 30 -38 9 -38 -9 0 -16 -4 -16 -10 0 -6 36 -10 88 -11 180 -2 195
2 185 42 -4 14 0 19 16 19 26 0 29 -35 5 -44 -9 -4 -15 -9 -12 -12 3 -2 271
-5 597 -5 l591 0 0 -590 0 -589 -100 0 c-55 0 -100 -4 -100 -9 0 -5 5 -22 11
-38 8 -22 8 -25 -2 -16 -9 9 -16 10 -26 2 -10 -9 -13 -8 -13 5 0 9 8 16 18 17
9 0 12 3 5 5 -7 3 -9 12 -6 20 6 17 -10 18 -39 3 -17 -9 -18 -13 -7 -20 10 -6
11 -9 2 -9 -19 0 -16 -18 5 -23 12 -3 10 -5 -7 -6 -22 -1 -23 2 -18 38 4 34 3
38 -14 34 -10 -3 -24 -11 -30 -19 -9 -11 -8 -14 5 -14 10 0 14 4 11 10 -3 5
-2 10 3 10 5 0 9 -14 9 -32 0 -26 -2 -29 -11 -16 -9 15 -11 15 -21 1 -9 -12
-11 -8 -9 21 2 23 -1 36 -9 36 -7 0 -12 -14 -12 -33 0 -41 -29 -46 -31 -4 -1
25 -1 25 3 2 5 -29 23 -34 23 -6 0 24 -16 36 -50 37 -14 1 -370 2 -792 3
l-768 1 0 591 0 590 58 -1 c81 -2 81 -2 77 21 -5 27 1 39 21 39 8 0 14 -9 14
-20z m25 10 c3 -5 1 -10 -4 -10 -6 0 -11 5 -11 10 0 6 2 10 4 10 3 0 8 -4 11
-10z m22 -22 c-3 -7 -5 -2 -5 12 0 14 2 19 5 13 2 -7 2 -19 0 -25z m33 5 c0
-19 -13 -9 -16 12 -1 8 2 13 7 9 5 -3 9 -12 9 -21z m180 16 c0 -5 -5 -7 -12
-3 -8 5 -9 2 -5 -9 3 -10 3 -17 -2 -17 -13 0 -20 11 -14 26 6 16 33 19 33 3z
m48 -6 c-5 -26 -38 -29 -38 -4 0 15 6 21 21 21 14 0 19 -5 17 -17z m122 6 c0
-5 -5 -7 -12 -3 -8 5 -9 0 -5 -16 5 -21 5 -22 -10 -8 -8 9 -12 21 -9 27 9 14
36 14 36 0z m136 -1 c4 -7 3 -8 -4 -4 -7 4 -12 1 -12 -8 0 -9 -4 -16 -10 -16
-11 0 -14 23 -3 33 10 10 21 8 29 -5z m261 -20 c-3 -7 -5 -2 -5 12 0 14 2 19
5 13 2 -7 2 -19 0 -25z m52 10 c-1 -21 -2 -21 -7 -3 -5 20 -5 20 -12 1 -6 -19
-7 -19 -12 2 -5 17 -2 22 13 22 13 0 19 -7 18 -22z m40 15 c-4 -22 3 -25 15
-7 13 16 17 17 28 5 9 -10 9 -12 1 -7 -8 5 -13 1 -13 -10 0 -10 -3 -14 -6 -11
-4 3 -16 2 -27 -4 -14 -8 -18 -8 -12 0 4 7 1 18 -5 26 -10 12 -9 15 4 15 9 0
15 -3 15 -7z m111 -3 c0 8 2 11 5 8 7 -7 -5 -38 -15 -38 -4 0 -10 9 -13 21 -4
16 -3 18 9 8 11 -9 14 -9 14 1z m56 -2 c5 -7 2 -9 -9 -5 -11 4 -14 2 -10 -9 3
-7 0 -14 -6 -14 -12 0 -15 23 -4 33 10 10 21 8 29 -5z m34 8 c0 -3 -4 -8 -10
-11 -5 -3 -10 -1 -10 4 0 6 5 11 10 11 6 0 10 -2 10 -4z m10 -26 c0 -5 -8 -10
-17 -10 -15 0 -16 2 -3 10 19 12 20 12 20 0z m246 -1229 c8 6 14 8 14 3 -1
-10 -30 -51 -31 -43 -6 34 -7 51 -2 41 4 -10 8 -10 19 -1z m24 -42 c0 -6 -4
-7 -10 -4 -5 3 -10 11 -10 16 0 6 5 7 10 4 6 -3 10 -11 10 -16z"/>
<path d="M235 1710 c-3 -5 -1 -10 4 -10 6 0 11 5 11 10 0 6 -2 10 -4 10 -3 0
-8 -4 -11 -10z"/>
<path d="M445 1710 c-3 -5 -1 -10 4 -10 6 0 11 5 11 10 0 6 -2 10 -4 10 -3 0
-8 -4 -11 -10z"/>
<path d="M590 1710 c0 -5 5 -10 10 -10 6 0 10 5 10 10 0 6 -4 10 -10 10 -5 0
-10 -4 -10 -10z"/>
<path d="M870 1710 c0 -5 5 -10 10 -10 6 0 10 5 10 10 0 6 -4 10 -10 10 -5 0
-10 -4 -10 -10z"/>
<path d="M1737 1575 c-56 -14 -94 -46 -105 -89 -13 -46 -8 -198 7 -234 29 -70
142 -100 221 -60 59 30 80 72 80 161 l0 67 -79 0 -80 0 1 -40 c0 -26 5 -40 14
-41 8 -1 20 -2 27 -3 13 -2 13 -54 0 -66 -20 -19 -51 -20 -73 -2 -21 17 -23
27 -23 112 0 79 3 95 19 107 27 20 61 16 78 -9 12 -16 27 -22 61 -23 25 -1 48
2 51 6 7 13 -26 73 -51 91 -37 28 -95 37 -148 23z"/>
<path d="M221 1569 c-12 -5 -17 -17 -17 -40 1 -33 3 -34 44 -37 l42 -3 0 -153
0 -153 50 1 c58 0 52 -20 52 179 0 125 1 128 22 126 61 -4 66 -1 66 41 0 39
-1 40 -37 41 -21 0 -75 1 -121 2 -46 1 -91 -1 -101 -4z"/>
<path d="M530 1571 l-26 -6 2 -185 c1 -102 2 -188 3 -192 0 -5 22 -7 48 -5
l48 3 0 74 0 75 55 0 55 0 1 -61 c1 -85 5 -92 53 -92 38 -1 41 1 42 26 0 15 1
101 2 191 2 183 3 181 -69 173 l-35 -4 1 -57 c3 -98 6 -92 -52 -89 l-53 3 0
69 c0 66 -1 70 -25 76 -14 3 -36 4 -50 1z"/>
<path d="M839 1455 c0 -66 -1 -153 -2 -193 -2 -57 1 -73 13 -76 34 -9 241 -3
247 7 4 6 7 25 7 41 l0 31 -80 0 -79 0 0 35 0 35 49 1 c53 2 62 10 61 51 -2
27 -4 28 -58 31 l-57 3 0 34 0 34 82 3 82 3 1 34 c1 19 -5 35 -12 38 -8 3 -68
6 -133 7 l-120 1 -1 -120z"/>
<path d="M1214 1572 l-41 -3 1 -192 1 -192 118 0 c114 1 118 2 145 28 35 36
38 115 5 148 -20 21 -20 22 -2 40 14 14 19 33 19 68 0 43 -4 53 -31 75 -20 17
-43 26 -67 27 -20 0 -53 1 -72 2 -19 1 -53 1 -76 -1z m143 -94 c5 -7 8 -19 7
-25 -1 -7 -2 -18 -3 -24 0 -6 -19 -9 -43 -7 -38 3 -43 6 -44 28 0 14 1 28 3
33 7 12 70 8 80 -5z m1 -151 c14 -11 15 -26 3 -46 -11 -17 -69 -22 -79 -7 -10
17 -9 50 3 58 14 10 57 7 73 -5z"/>
<path d="M1525 1571 l-30 -6 0 -190 0 -190 50 0 50 0 0 189 c-1 179 -2 189
-20 196 -11 3 -33 4 -50 1z"/>
<path d="M500 1147 c-112 -23 -171 -135 -115 -220 17 -26 88 -67 147 -86 79
-26 111 -77 70 -115 -14 -12 -30 -15 -62 -11 -55 7 -58 9 -68 48 -8 31 -10 32
-63 32 -45 0 -54 -3 -53 -17 1 -10 2 -29 3 -42 1 -33 46 -84 90 -102 20 -8 63
-16 96 -16 120 -1 195 59 195 157 0 72 -34 106 -158 155 -91 36 -113 60 -93
98 27 50 126 31 137 -27 5 -25 9 -26 60 -26 53 0 54 0 54 28 0 100 -116 169
-240 144z"/>
<path d="M886 1145 c-53 -18 -84 -41 -101 -76 -19 -36 -22 -98 -6 -128 13 -23
87 -81 105 -81 22 0 133 -58 139 -73 3 -8 3 -24 0 -35 -17 -65 -153 -43 -153
25 0 21 -4 23 -55 23 l-55 0 0 -38 c0 -102 124 -170 255 -138 76 18 124 72
130 145 6 69 -44 119 -160 162 -63 23 -105 53 -101 72 7 32 20 46 47 52 45 10
88 -11 97 -49 8 -29 11 -31 58 -31 55 0 66 12 53 59 -14 48 -39 77 -84 97 -54
24 -123 30 -169 14z"/>
<path d="M204 885 l0 -256 60 3 61 3 1 253 1 252 -61 0 -62 0 0 -255z"/>
<path d="M1174 938 c1 -192 3 -205 24 -240 70 -113 296 -106 356 10 11 21 15
77 16 230 l1 202 -59 0 -58 0 0 -178 c-1 -98 -4 -190 -7 -204 -12 -46 -96 -58
-132 -18 -14 15 -17 48 -18 207 l-2 188 -62 3 -61 3 2 -203z"/>
<path d="M1598 1133 c-2 -5 -3 -118 -3 -253 l1 -245 172 -3 172 -2 0 50 0 50
-110 0 -110 0 0 53 0 52 68 0 c84 -1 89 1 86 28 -1 12 -3 33 -3 47 -1 26 -2
26 -76 25 l-75 -1 0 53 0 53 110 0 110 0 0 50 0 50 -169 0 c-94 0 -171 -3
-173 -7z"/>
<path d="M540 1710 c0 -5 5 -10 10 -10 6 0 10 5 10 10 0 6 -4 10 -10 10 -5 0
-10 -4 -10 -10z"/>
</g>
</svg>
