<?xml version="1.0" standalone="no"?>
<!DOCTYPE svg PUBLIC "-//W3C//DTD SVG 20010904//EN"
 "http://www.w3.org/TR/2001/REC-SVG-20010904/DTD/svg10.dtd">
<svg version="1.0" xmlns="http://www.w3.org/2000/svg"
 width="205.000000pt" height="205.000000pt" viewBox="0 0 205.000000 205.000000"
 preserveAspectRatio="xMidYMid meet">
<metadata>
Created by potrace 1.11, written by Peter Selinger 2001-2013
</metadata>
<g transform="translate(0.000000,205.000000) scale(0.100000,-0.100000)"
fill="#000000" stroke="none">
<path d="M0 1025 l0 -1025 1025 0 1025 0 0 1025 0 1025 -1025 0 -1025 0 0
-1025z m1939 514 c20 -7 33 -20 37 -36 14 -56 -108 -289 -187 -357 -23 -19
-63 -43 -90 -52 -27 -10 -49 -22 -49 -28 0 -5 10 -20 22 -33 37 -39 30 -84
-32 -206 -30 -59 -80 -142 -110 -184 -45 -64 -65 -83 -114 -108 l-60 -30 -638
-3 c-457 -2 -638 1 -638 9 0 6 43 88 96 182 53 95 118 210 144 257 26 47 75
135 109 195 34 61 99 176 144 258 l82 147 626 0 c429 0 636 -3 658 -11z"/>
<path d="M1208 1353 l-57 -4 -66 -118 c-36 -65 -65 -123 -65 -130 0 -8 45 -11
153 -11 204 1 215 6 278 126 57 109 55 134 -13 134 -24 0 -72 2 -108 4 -36 2
-91 2 -122 -1z"/>
<path d="M847 796 c-43 -74 -77 -137 -77 -140 0 -3 68 -6 151 -6 208 0 230 12
313 176 52 104 52 104 -154 104 l-157 0 -76 -134z"/>
</g>
</svg>
