<?xml version="1.0" encoding="utf-8"?>
<!-- Generator: Adobe Illustrator 23.0.1, SVG Export Plug-In . SVG Version: 6.00 Build 0)  -->
<svg version="1.1" id="Layer_1" focusable="false" xmlns="http://www.w3.org/2000/svg" xmlns:xlink="http://www.w3.org/1999/xlink"
	 x="0px" y="0px" viewBox="0 0 448 512" style="enable-background:new 0 0 448 512;" xml:space="preserve">
<style type="text/css">
	.st0{fill:#FFFFFF;}
</style>
<path class="st0" d="M111.5,84.3c0-1.1,0.4-2.1,1.2-2.8l22.7-22.7c0.8-0.8,1.8-1.2,2.8-1.2s2.1,0.4,2.8,1.2l194.3,194.3
	c0.8,0.8,1.2,1.7,1.2,2.8c0,1.1-0.4,2.1-1.2,2.8L141,453.2c-1,1-2.2,1.2-2.8,1.2s-1.8-0.1-2.8-1.2l-22.7-22.7
	c-0.8-0.8-1.2-1.7-1.2-2.8c0-1.1,0.4-2,1.2-2.8L280.7,256L112.6,87.2C111.9,86.4,111.5,85.4,111.5,84.3z"/>
</svg>
