<?xml version="1.0" encoding="utf-8"?>
<!-- Generator: Adobe Illustrator 23.0.1, SVG Export Plug-In . SVG Version: 6.00 Build 0)  -->
<svg version="1.1" id="Layer_1" focusable="false" xmlns="http://www.w3.org/2000/svg" xmlns:xlink="http://www.w3.org/1999/xlink"
	 x="0px" y="0px" viewBox="0 0 448 512" style="enable-background:new 0 0 448 512;" xml:space="preserve">
<style type="text/css">
	.st0{fill:#FFFFFF;}
</style>
<path class="st0" d="M336.5,427.7c0,1.1-0.4,2.1-1.2,2.8l-22.7,22.7c-0.8,0.8-1.8,1.2-2.8,1.2s-2.1-0.4-2.8-1.2L112.7,258.8
	c-0.8-0.8-1.2-1.7-1.2-2.8c0-1.1,0.4-2.1,1.2-2.8L307,58.8c1-1,2.2-1.2,2.8-1.2s1.8,0.1,2.8,1.2l22.7,22.7c0.8,0.8,1.2,1.7,1.2,2.8
	c0,1.1-0.4,2-1.2,2.8L167.3,256l168.1,168.8C336.1,425.6,336.5,426.6,336.5,427.7z"/>
</svg>
