<?xml version="1.0" encoding="utf-8"?>
<!-- Generator: Adobe Illustrator 19.0.0, SVG Export Plug-In . SVG Version: 6.00 Build 0)  -->
<svg version="1.1" id="레이어_1" focusable="false"
	 xmlns="http://www.w3.org/2000/svg" xmlns:xlink="http://www.w3.org/1999/xlink" x="0px" y="0px" viewBox="-73 164.9 448 512"
	 style="enable-background:new -73 164.9 448 512;" xml:space="preserve">
<style type="text/css">
	.st0{fill:#FFFFFF;}
</style>
<path class="st0" d="M327,196.9H-25c-26.5,0-48,21.5-48,48v352c0,26.5,21.5,48,48,48h137.3V492.6h-63v-71.7h63v-54.6
	c0-62.1,37-96.5,93.7-96.5c27.1,0,55.5,4.8,55.5,4.8v61h-31.3c-30.8,0-40.4,19.1-40.4,38.7v46.6h68.8l-11,71.7h-57.8v152.3H327
	c26.5,0,48-21.5,48-48v-352C375,218.4,353.5,196.9,327,196.9z"/>
</svg>
