<?xml version="1.0" encoding="utf-8"?>
<!-- Generator: Adobe Illustrator 23.0.1, SVG Export Plug-In . SVG Version: 6.00 Build 0)  -->
<svg version="1.1" id="Layer_1" focusable="false" xmlns="http://www.w3.org/2000/svg" xmlns:xlink="http://www.w3.org/1999/xlink"
	 x="0px" y="0px" viewBox="0 0 448 512" style="enable-background:new 0 0 448 512;" xml:space="preserve">
<style type="text/css">
	.st0{fill:#FFFFFF;}
</style>
<path class="st0" d="M400,32H48C21.5,32,0,53.5,0,80v352c0,26.5,21.5,48,48,48h352c26.5,0,48-21.5,48-48V80
	C448,53.5,426.5,32,400,32z M326.9,357.9c-22.4-0.1-44.7-0.1-67.1,0c-3.5,0-5.5-1.2-7.4-4c-22-32.4-44-64.8-66.1-97.2
	c-0.5-0.7-1-1.4-2.1-3c0,33.3,0,65.4,0,97.4c0,6.7,0,6.7-6.7,6.7c-21.3,0-42.7-0.1-64,0.1c-4.2,0-5.8-0.9-5.8-5.5
	c0.2-64.9,0.1-129.8,0-194.6c0-4.1,1-5.5,5.3-5.4c22.2,0.2,44.4,0.2,66.6,0c3.8,0,6.1,1.1,8.2,4.3c21.7,32.1,43.5,64.1,65.3,96.1
	c0.7,1,1.5,2,2.8,3.8c0-2.3,0-3.7,0-5.1c0-31.2,0.1-62.4-0.1-93.6c0-4.5,1.3-5.6,5.6-5.5c21.9,0.2,43.8,0.2,65.7,0
	c3.8,0,5,1.1,5,4.9c-0.1,65.2-0.1,130.3,0,195.5C332.3,356.9,330.8,357.9,326.9,357.9z"/>
</svg>
