<?xml version="1.0" encoding="utf-8"?>
<!-- Generator: Adobe Illustrator 23.0.1, SVG Export Plug-In . SVG Version: 6.00 Build 0)  -->
<svg version="1.1" id="Layer_1" focusable="false" xmlns="http://www.w3.org/2000/svg" xmlns:xlink="http://www.w3.org/1999/xlink"
	 x="0px" y="0px" viewBox="0 0 500 500" style="enable-background:new 0 0 500 500;" xml:space="preserve">
<style type="text/css">
	.st0{fill:#FFFFFF;}
</style>
<path class="st0" d="M458.4,294.3l41-203.1c3-14.7-6.9-28.6-20.3-28.6h-341l-8-43.8C128.3,7.8,119.7,0,109.8,0h-89
	C9.3,0,0,10.5,0,23.4v15.6C0,52,9.3,62.5,20.8,62.5h60.7l61,335.4c-14.6,9.4-24.4,27.1-24.4,47.4c0,30.2,21.8,54.7,48.6,54.7
	s48.6-24.5,48.6-54.7c0-15.3-5.6-29.1-14.6-39.1h182c-9,9.9-14.6,23.8-14.6,39.1c0,30.2,21.8,54.7,48.6,54.7
	c26.8,0,48.6-24.5,48.6-54.7c0-21.7-11.2-40.4-27.4-49.2l4.8-23.7c3-14.7-6.9-28.6-20.3-28.6h-233l-5.7-31.3h254.5
	C447.8,312.5,456.3,304.9,458.4,294.3z"/>
</svg>
