<?xml version="1.0" encoding="utf-8"?>
<!-- Generator: Adobe Illustrator 23.0.1, SVG Export Plug-In . SVG Version: 6.00 Build 0)  -->
<svg version="1.1" id="레이어_1" xmlns="http://www.w3.org/2000/svg" xmlns:xlink="http://www.w3.org/1999/xlink" x="0px"
	 y="0px" viewBox="0 0 500 500" style="enable-background:new 0 0 500 500;" xml:space="preserve">
<style type="text/css">
	.st0{fill:#FFFFFF;}
</style>
<g>
	<path class="st0" d="M254.8,294.5c-19.8,0-39-3.9-57.1-11.5c-17.5-7.4-33.1-18-46.6-31.4c-13.5-13.5-24-29.1-31.4-46.6
		c-7.6-18.1-11.5-37.3-11.5-57.1s3.9-39,11.5-57.1c7.4-17.5,18-33.1,31.4-46.6c13.5-13.5,29.1-24,46.6-31.4
		C215.8,5.3,235,1.4,254.8,1.4s39,3.9,57.1,11.5c17.5,7.4,33.1,18,46.6,31.4s24,29.1,31.4,46.6c7.6,18.1,11.5,37.3,11.5,57.1
		s-3.9,39-11.5,57.1c-7.4,17.5-18,33.1-31.4,46.6c-13.5,13.5-29.1,24-46.6,31.4C293.7,290.7,274.5,294.5,254.8,294.5z"/>
</g>
<g>
	<path class="st0" d="M477.3,497.9H22.6c-6.2,0-12.1-2.2-16.3-6.2s-6.6-9.3-6.3-14.8c3.2-73.1,46.4-140.3,115.6-179.7
		c6.8-3.9,15.5-4.3,22.7-0.9C167.9,310.1,207.4,326,250,326c42.6,0,82.1-15.9,111.7-29.7c7.2-3.4,15.9-3,22.7,0.9
		c69.2,39.4,112.4,106.6,115.6,179.7c0.2,5.5-2,10.9-6.3,14.8C489.4,495.7,483.5,497.9,477.3,497.9z"/>
</g>
</svg>
