<?xml version="1.0" encoding="utf-8"?>
<!-- Generator: Adobe Illustrator 24.1.2, SVG Export Plug-In . SVG Version: 6.00 Build 0)  -->
<svg version="1.1" id="레이어_1" xmlns="http://www.w3.org/2000/svg" xmlns:xlink="http://www.w3.org/1999/xlink" x="0px"
	 y="0px" viewBox="0 0 536.3 431.3" style="enable-background:new 0 0 536.3 431.3;" xml:space="preserve">
<path d="M407.2,8.6c7.2,2.4,14.7,4,21.4,7.4c20.7,10.6,33.2,27.6,37.2,50.7c1.4,8.3,0.5,7.3,8.4,7.2c8.9-0.1,18-0.5,26.9-0.7
	c8.7-0.1,10.2,1.5,10.2,9.9c0,37.5-0.1,74.9,0.1,112.4c0.2,72.3,0.5,144.6,0.8,216.9c0,1.5,0,3.1-0.2,4.6c-0.3,2.8-1.9,4.5-4.7,4.7
	c-1.6,0.2-3.3,0.2-5,0.2c-53.3,0-106.6,0-159.9,0.1c-7.9,0-15.9,0.7-23.8,0.7c-96.3,0.1-192.6,0.1-288.9,0.1c-1.5,0-3.1,0-4.6-0.1
	c-2.9-0.1-4.6-1.5-4.7-4.5c-0.3-5.4-0.8-10.7-0.8-16.1c-0.1-52.6-0.1-105.2-0.2-157.8c0-1.9-0.9-3.8-1.5-5.6c0-12.3,0-24.6,0-36.9
	c0.2-1.9,0.8-3.8,0.8-5.6c0-37.9,0-75.9,0-113.9c0-6,1.5-7.5,7.6-7.5c39.8-0.2,79.6-0.6,119.3-0.7c59.1-0.2,118.1-0.1,177.2,0
	c3.8,0,5.4-0.6,6.1-5c3.4-23.6,15.2-41.7,36.7-52.6c6.8-3.4,14.4-5.2,21.6-7.9C393.8,8.6,400.5,8.6,407.2,8.6z M28.7,227.5
	L28.7,227.5c0,13.9,0,27.7,0.1,41.6c0,4.1,0.5,4.5,4.2,3.2c24.2-7.9,51.7,0.6,65.3,21.6c0.5,0.7,1.3,1.3,2.1,1.5
	c4.9,1.5,9.3,0.1,12.4-4.1c13.9-18.2,39.9-26.6,61.8-19.5c11.8,3.8,21.7,10.3,29.2,20.4c1.9,2.5,4,3.4,7.1,3.5
	c3.7,0.2,5.6-1.8,7.5-4.4c7.6-10.2,17.8-16.6,29.8-19.9c14.4-3.9,28.5-2.8,41.8,4.5c2.5,1.4,4.9,2.2,7.6,0.8c3.9-1.9,7.9-9,7.1-13.3
	c-0.8-4.4-1.5-8.9-2.5-13.2c-9.7-42-28.6-78.9-61.7-107.5c-25.8-22.2-55.3-34.6-90-34.2c-19.6,0.2-37.9,4.6-55.3,13.2
	c-26.2,12.9-46.3,32.7-62.9,56.5c-2.9,4.2-3.9,8.3-3.8,13.2C28.9,203.4,28.7,215.5,28.7,227.5z M500.9,195.7
	c0.4-0.2,0.7-0.4,1.1-0.5c0-1.4,0-2.8,0-4.2c0-30,0-60,0-90.1c0-4.7-0.5-9.4-0.6-14.1c-0.1-2.9-1.5-3.7-4.2-3.7
	c-8.7,0.1-17.5,0.2-26.2,0c-3.4-0.1-4.7,1.3-5.2,4.6c-2.6,18-11.3,32.5-25.4,43.8c-13.3,10.6-28.8,15.4-46,14.7
	c-18.9-0.8-34.9-8.3-47.7-21.8c-9.5-9.9-15.2-22.1-17.6-35.8c-0.9-5.6-1.1-5.6-6.9-5.6c-23.6,0.2-47.3,0.5-70.9,0.7
	c-7.2,0.1-14.3,0-21.5,0c-57.7,0-115.4,0-173.1,0c-8.3,0-16.4,0.1-24.7,0c-3.2-0.1-4.3,1.2-4.2,4.3c0.2,6,0,12,0.1,18.1
	c0,18.6,0.1,37.2,0.2,55.7c0,1,0.6,2,1.2,3.8c1.4-1.6,2.2-2.5,3-3.4c4.2-5,8.2-10.3,12.6-15c11.5-12.2,24.6-22.5,39.3-30.7
	c25.8-14.3,53.3-20.6,82.7-17.2c39.6,4.6,71.5,23.9,97.3,53.3c22.1,25.1,36.6,54.3,45,86.6c1.3,5,2.5,10,3.9,15.3
	c0.8-0.5,1.1-0.6,1.3-0.9c0.7-0.8,1.3-1.6,1.9-2.4c17.9-23.5,38-44.7,63.2-60.7c16.4-10.3,34.1-17.5,53.6-19
	c22.6-1.7,42.9,4.8,60.8,18.5C496.4,192.2,498.6,193.9,500.9,195.7z M501.7,274.1c0.1-1.5,0.3-2.9,0.3-4.4c0-15.8-0.5-31.6,0.2-47.4
	c0.5-9.3-2.2-15.6-9.7-21.5c-24-19.1-50.3-24.6-79.5-15.3c-22.4,7.1-41,20.5-57.8,36.4c-18.4,17.4-33.6,37.3-47.2,58.5
	c-3.3,5.2-3.3,5.2,1,9.8c0.6,0.6,1.2,1.3,1.7,2.1c3.3,4.6,9.6,4.9,13.1,0.2c4.3-5.9,9.6-10.6,15.8-14.5
	c24.8-15.8,59.5-9.3,76.5,14.3c1.2,1.6,3.5,2.6,5.6,3.1c4.8,1.2,7.9-1.2,11-5c13.5-16.6,31.4-23,52.4-20.6
	C490.4,270.6,495.8,272.6,501.7,274.1z M120.1,297.1c4.9,3.2,6.4,3.2,9.9-0.1c15.8-14.4,39.8-14.7,54.5-0.8
	c3.9,3.7,5.9,3.9,10.7,0.3c-11.3-14-26.1-19.4-43.6-17.7C138.8,280.3,128.1,286.5,120.1,297.1z M408.1,296.8
	c-3.5-3.3-6.5-6.6-9.9-9.1c-10.3-7.7-22.1-10.3-34.5-8.9c-11.8,1.3-21.7,6.8-29.7,15.6c-1.7,1.9-1.4,2.9,0.9,3.9
	c3.9,1.9,6.2-0.6,8.7-2.9c14.3-12.9,38.3-12.8,52.5,0.2C400.9,300.2,401.1,300.2,408.1,296.8z M501.2,293.7
	c1.9-6.4,1.1-8.7-4.2-10.9c-17.7-7.2-34.4-5.5-49.8,5.9c-3,2.2-5.4,5.4-8.2,8.3c4.2,2.5,6.9,2.5,10.1-0.3
	c13.3-11.3,28.3-14.3,44.7-7C496.3,290.9,498.5,292.3,501.2,293.7z M88.1,297.1c-0.2-0.6-0.2-1-0.5-1.3
	c-14-16.9-36.3-21.1-54.8-13.7c-4.6,1.9-5.3,4.2-3.1,9.3c1.2-0.5,2.5-1.1,3.8-1.6c14.8-6.9,33.2-4.6,44.1,6.2
	C81.2,299.4,84.2,299.3,88.1,297.1z M500.4,333.8c0.5,0,0.8,0,1.3,0c0.2-1.1,0.3-2.2,0.3-3.2c0-6.2,0.3-12.6-0.2-18.8
	c-0.2-2.5-1.4-5.6-3.2-7.4c-8.3-8.8-18.8-10.3-30.1-8.3c-5.2,0.9-9.6,3.6-13.3,7.6c4.4,4.7,4.7,4.4,9.9,2.2c4-1.7,8.6-3.4,12.8-3.1
	c15.1,1.2,23.8,12.2,22.3,27.4C500.3,331.6,500.4,332.8,500.4,333.8z M136.6,304.2c4.1,4.6,4.2,4.6,9.4,1.8c7.5-4,15.2-4.4,22.9-0.5
	c5,2.5,5.2,2.5,9.3-1.6C171,292.9,144.7,292.4,136.6,304.2z M370.9,295.7c-1.2,0-1.8,0-2.3,0c-6.6-0.5-12.3,1.8-17.4,5.8
	c-0.8,0.7-1.5,3.2-1.2,3.5c1.9,1.8,3.8,3.5,7,1.7c8.6-5.1,17.4-5.4,26.1,0.2c0.2,0.2,0.5,0.5,0.6,0.4c2.1-0.8,4.2-1.6,6.3-2.4
	c-0.8-1.2-1.2-2.9-2.4-3.7C382.5,297.4,376.8,294.9,370.9,295.7z M30,303.5c4.6,4.3,5.7,4.8,8.5,3.1c5.7-3.5,11.9-4.8,18.4-3.2
	c2.5,0.6,5,1.8,7.4,3c2.8,1.4,4.9,0.1,6.3-1.9c0.3-0.5-1.2-2.9-2.4-3.9c-6.8-5.6-15-5.8-23-4.8C39.5,296.6,34,298.7,30,303.5z
	 M273,279.6c-1-0.2-1.9-0.6-2.9-0.7c-16-1.4-30.3,2.5-41.5,14.8c-0.9,1-1,2.7-1.5,4c2,0.2,4.1,0.5,6,0.3c0.9-0.1,1.5-1.6,2.4-2.4
	c2-1.8,3.9-3.7,6.2-5.1C251.2,284.4,261.9,281.8,273,279.6z M468.3,315.4c2.5,1.7,4.5,4.1,6.3,4c6-0.3,8.7,1.8,9.3,8.1
	c0.1,1,1.1,2.3,1.9,2.7c3.6,1.6,5.2,0.5,5.2-3.5c0.2-6.2-3.1-10.9-8.9-13.5C477.6,311.2,473.4,311.8,468.3,315.4z M164.6,313.9
	c-3.5-2.5-7.2-2.5-11-1.1c-1.3,0.5-2.3,1.9-3.5,2.9c1.5,1.3,2.9,3.8,4.4,3.8C158.5,319.7,162.8,319.3,164.6,313.9z M362.5,314.6
	c3.3,5.1,3.4,5.4,9.6,4.5c2-0.3,3.7-2.6,5.8-4.2C372.7,311.1,367.5,311.2,362.5,314.6z M485,411.8c0,0.3,0,0.5,0,0.8
	c4,0,8.1,0,12.1,0c5.9,0,7-1.8,4.8-7.6C496.2,407.3,490.6,409.6,485,411.8z M58,314.4c-4.6-3.3-9.4-3.2-13.7,0.2
	C48.1,321.4,53.5,321.4,58,314.4z"/>
</svg>
