<?xml version="1.0" encoding="utf-8"?>
<!-- Generator: Adobe Illustrator 24.1.2, SVG Export Plug-In . SVG Version: 6.00 Build 0)  -->
<svg version="1.1" id="레이어_1" xmlns="http://www.w3.org/2000/svg" xmlns:xlink="http://www.w3.org/1999/xlink" x="0px"
	 y="0px" viewBox="0 0 2392.6 431.3" style="enable-background:new 0 0 2392.6 431.3;" xml:space="preserve">
<path d="M407.2,8.6c7.2,2.4,14.7,4,21.4,7.4c20.7,10.6,33.2,27.6,37.2,50.7c1.4,8.3,0.5,7.3,8.4,7.2c8.9-0.1,18-0.5,26.9-0.7
	c8.7-0.1,10.2,1.5,10.2,9.9c0,37.5-0.1,74.9,0.1,112.4c0.2,72.3,0.5,144.6,0.8,216.9c0,1.5,0,3.1-0.2,4.6c-0.3,2.8-1.9,4.5-4.7,4.7
	c-1.6,0.2-3.3,0.2-5,0.2c-53.3,0-106.6,0-159.9,0.1c-7.9,0-15.9,0.7-23.8,0.7c-96.3,0.1-192.6,0.1-288.9,0.1c-1.5,0-3.1,0-4.6-0.1
	c-2.9-0.1-4.6-1.5-4.7-4.5c-0.3-5.4-0.8-10.7-0.8-16.1c-0.1-52.6-0.1-105.2-0.2-157.8c0-1.9-0.9-3.8-1.5-5.6c0-12.3,0-24.6,0-36.9
	c0.2-1.9,0.8-3.8,0.8-5.6c0-37.9,0-75.9,0-113.9c0-6,1.5-7.5,7.6-7.5c39.8-0.2,79.6-0.6,119.3-0.7c59.1-0.2,118.1-0.1,177.2,0
	c3.8,0,5.4-0.6,6.1-5c3.4-23.6,15.2-41.7,36.7-52.6c6.8-3.4,14.4-5.2,21.6-7.9C393.8,8.6,400.5,8.6,407.2,8.6z M28.7,227.5
	L28.7,227.5c0,13.9,0,27.7,0.1,41.6c0,4.1,0.5,4.5,4.2,3.2c24.2-7.9,51.7,0.6,65.3,21.6c0.5,0.7,1.3,1.3,2.1,1.5
	c4.9,1.5,9.3,0.1,12.4-4.1c13.9-18.2,39.9-26.6,61.8-19.5c11.8,3.8,21.7,10.3,29.2,20.4c1.9,2.5,4,3.4,7.1,3.5
	c3.7,0.2,5.6-1.8,7.5-4.4c7.6-10.2,17.8-16.6,29.8-19.9c14.4-3.9,28.5-2.8,41.8,4.5c2.5,1.4,4.9,2.2,7.6,0.8c3.9-1.9,7.9-9,7.1-13.3
	c-0.8-4.4-1.5-8.9-2.5-13.2c-9.7-42-28.6-78.9-61.7-107.5c-25.8-22.2-55.3-34.6-90-34.2c-19.6,0.2-37.9,4.6-55.3,13.2
	c-26.2,12.9-46.3,32.7-62.9,56.5c-2.9,4.2-3.9,8.3-3.8,13.2C28.9,203.4,28.7,215.5,28.7,227.5z M500.9,195.7
	c0.4-0.2,0.7-0.4,1.1-0.5c0-1.4,0-2.8,0-4.2c0-30,0-60,0-90.1c0-4.7-0.5-9.4-0.6-14.1c-0.1-2.9-1.5-3.7-4.2-3.7
	c-8.7,0.1-17.5,0.2-26.2,0c-3.4-0.1-4.7,1.3-5.2,4.6c-2.6,18-11.3,32.5-25.4,43.8c-13.3,10.6-28.8,15.4-46,14.7
	c-18.9-0.8-34.9-8.3-47.7-21.8c-9.5-9.9-15.2-22.1-17.6-35.8c-0.9-5.6-1.1-5.6-6.9-5.6c-23.6,0.2-47.3,0.5-70.9,0.7
	c-7.2,0.1-14.3,0-21.5,0c-57.7,0-115.4,0-173.1,0c-8.3,0-16.4,0.1-24.7,0c-3.2-0.1-4.3,1.2-4.2,4.3c0.2,6,0,12,0.1,18.1
	c0,18.6,0.1,37.2,0.2,55.7c0,1,0.6,2,1.2,3.8c1.4-1.6,2.2-2.5,3-3.4c4.2-5,8.2-10.3,12.6-15c11.5-12.2,24.6-22.5,39.3-30.7
	c25.8-14.3,53.3-20.6,82.7-17.2c39.6,4.6,71.5,23.9,97.3,53.3c22.1,25.1,36.6,54.3,45,86.6c1.3,5,2.5,10,3.9,15.3
	c0.8-0.5,1.1-0.6,1.3-0.9c0.7-0.8,1.3-1.6,1.9-2.4c17.9-23.5,38-44.7,63.2-60.7c16.4-10.3,34.1-17.5,53.6-19
	c22.6-1.7,42.9,4.8,60.8,18.5C496.4,192.2,498.6,193.9,500.9,195.7z M501.7,274.1c0.1-1.5,0.3-2.9,0.3-4.4c0-15.8-0.5-31.6,0.2-47.4
	c0.5-9.3-2.2-15.6-9.7-21.5c-24-19.1-50.3-24.6-79.5-15.3c-22.4,7.1-41,20.5-57.8,36.4c-18.4,17.4-33.6,37.3-47.2,58.5
	c-3.3,5.2-3.3,5.2,1,9.8c0.6,0.6,1.2,1.3,1.7,2.1c3.3,4.6,9.6,4.9,13.1,0.2c4.3-5.9,9.6-10.6,15.8-14.5
	c24.8-15.8,59.5-9.3,76.5,14.3c1.2,1.6,3.5,2.6,5.6,3.1c4.8,1.2,7.9-1.2,11-5c13.5-16.6,31.4-23,52.4-20.6
	C490.4,270.6,495.8,272.6,501.7,274.1z M120.1,297.1c4.9,3.2,6.4,3.2,9.9-0.1c15.8-14.4,39.8-14.7,54.5-0.8
	c3.9,3.7,5.9,3.9,10.7,0.3c-11.3-14-26.1-19.4-43.6-17.7C138.8,280.3,128.1,286.5,120.1,297.1z M408.1,296.8
	c-3.5-3.3-6.5-6.6-9.9-9.1c-10.3-7.7-22.1-10.3-34.5-8.9c-11.8,1.3-21.7,6.8-29.7,15.6c-1.7,1.9-1.4,2.9,0.9,3.9
	c3.9,1.9,6.2-0.6,8.7-2.9c14.3-12.9,38.3-12.8,52.5,0.2C400.9,300.2,401.1,300.2,408.1,296.8z M501.2,293.7
	c1.9-6.4,1.1-8.7-4.2-10.9c-17.7-7.2-34.4-5.5-49.8,5.9c-3,2.2-5.4,5.4-8.2,8.3c4.2,2.5,6.9,2.5,10.1-0.3
	c13.3-11.3,28.3-14.3,44.7-7C496.3,290.9,498.5,292.3,501.2,293.7z M88.1,297.1c-0.2-0.6-0.2-1-0.5-1.3
	c-14-16.9-36.3-21.1-54.8-13.7c-4.6,1.9-5.3,4.2-3.1,9.3c1.2-0.5,2.5-1.1,3.8-1.6c14.8-6.9,33.2-4.6,44.1,6.2
	C81.2,299.4,84.2,299.3,88.1,297.1z M500.4,333.8c0.5,0,0.8,0,1.3,0c0.2-1.1,0.3-2.2,0.3-3.2c0-6.2,0.3-12.6-0.2-18.8
	c-0.2-2.5-1.4-5.6-3.2-7.4c-8.3-8.8-18.8-10.3-30.1-8.3c-5.2,0.9-9.6,3.6-13.3,7.6c4.4,4.7,4.7,4.4,9.9,2.2c4-1.7,8.6-3.4,12.8-3.1
	c15.1,1.2,23.8,12.2,22.3,27.4C500.3,331.6,500.4,332.8,500.4,333.8z M136.6,304.2c4.1,4.6,4.2,4.6,9.4,1.8c7.5-4,15.2-4.4,22.9-0.5
	c5,2.5,5.2,2.5,9.3-1.6C171,292.9,144.7,292.4,136.6,304.2z M370.9,295.7c-1.2,0-1.8,0-2.3,0c-6.6-0.5-12.3,1.8-17.4,5.8
	c-0.8,0.7-1.5,3.2-1.2,3.5c1.9,1.8,3.8,3.5,7,1.7c8.6-5.1,17.4-5.4,26.1,0.2c0.2,0.2,0.5,0.5,0.6,0.4c2.1-0.8,4.2-1.6,6.3-2.4
	c-0.8-1.2-1.2-2.9-2.4-3.7C382.5,297.4,376.8,294.9,370.9,295.7z M30,303.5c4.6,4.3,5.7,4.8,8.5,3.1c5.7-3.5,11.9-4.8,18.4-3.2
	c2.5,0.6,5,1.8,7.4,3c2.8,1.4,4.9,0.1,6.3-1.9c0.3-0.5-1.2-2.9-2.4-3.9c-6.8-5.6-15-5.8-23-4.8C39.5,296.6,34,298.7,30,303.5z
	 M273,279.6c-1-0.2-1.9-0.6-2.9-0.7c-16-1.4-30.3,2.5-41.5,14.8c-0.9,1-1,2.7-1.5,4c2,0.2,4.1,0.5,6,0.3c0.9-0.1,1.5-1.6,2.4-2.4
	c2-1.8,3.9-3.7,6.2-5.1C251.2,284.4,261.9,281.8,273,279.6z M468.3,315.4c2.5,1.7,4.5,4.1,6.3,4c6-0.3,8.7,1.8,9.3,8.1
	c0.1,1,1.1,2.3,1.9,2.7c3.6,1.6,5.2,0.5,5.2-3.5c0.2-6.2-3.1-10.9-8.9-13.5C477.6,311.2,473.4,311.8,468.3,315.4z M164.6,313.9
	c-3.5-2.5-7.2-2.5-11-1.1c-1.3,0.5-2.3,1.9-3.5,2.9c1.5,1.3,2.9,3.8,4.4,3.8C158.5,319.7,162.8,319.3,164.6,313.9z M362.5,314.6
	c3.3,5.1,3.4,5.4,9.6,4.5c2-0.3,3.7-2.6,5.8-4.2C372.7,311.1,367.5,311.2,362.5,314.6z M485,411.8c0,0.3,0,0.5,0,0.8
	c4,0,8.1,0,12.1,0c5.9,0,7-1.8,4.8-7.6C496.2,407.3,490.6,409.6,485,411.8z M58,314.4c-4.6-3.3-9.4-3.2-13.7,0.2
	C48.1,321.4,53.5,321.4,58,314.4z"/>
<path d="M2362.9,322c-7.5,0-14.3,0-21-0.1c0.3-4.7-1.4-9.3-4.9-13.2c-5.1-5.8-10.6-11.9-16.4-17.9c-6.7-7.1-13.4-14.1-20.1-21.2
	c-6.6-6.9-13.4-14.1-20.1-21.1c-22.4-23.6-44.2-46.8-65-68.9c-5.8-6.2-12-13-18.8-20.7c-0.3-0.3-1-1.5-1.4-2.2
	c-0.5-0.8-1-1.7-1.5-2.5l-5.6-8.7c-0.4-0.7-1.1-1.2-1.9-1.3c-0.2,0-0.4-0.1-0.6-0.1c-0.6,0-1.2,0.2-1.7,0.5l-14.7,10.1
	c-0.8,0.5-1.2,1.4-1.3,2.3l-0.3,4.9c0,0.4-0.1,0.9-0.1,1.3v0.1c-0.1,1.3-0.2,2.8-0.2,4.5c0,12.1,0,24.1,0,36.2v5.3
	c0,34.1,0,69.5-0.1,104.2c0,3.1,0.4,5.9,1.1,8.4c-2.9,0-5.7,0-8.6,0c-5.2,0-10,0-14.5,0c0.8-2.6,1.1-5.5,1.1-8.7
	c-0.1-66.3-0.1-132.3,0-196.1c0-1.5,0-4.4-0.8-7.7c6.5,0,13.2,0,20.2,0c7.2,0,14.7,0,22.7,0c-0.1,3.5,1.1,7.9,5.1,12.5
	c6.5,7.3,11.5,12.8,16.4,18c7.3,7.6,14.6,15.3,21.9,22.9l0.4,0.4c7.5,7.8,15.3,16,22.9,24c21.3,22.4,42.9,45.2,63.8,67.3l6.9,7.2
	c0.7,0.7,1.5,1.7,2.5,3c0.7,0.8,1.4,1.7,2.3,2.8l15.4,18.3c0.6,0.7,1.4,1.1,2.3,1.1c0.3,0,0.6,0,0.9-0.1c1.2-0.4,2-1.4,2.1-2.6
	l2.2-23.8c0.1-0.9,0.2-1.7,0.2-2.3c0.2-1.6,0.3-3,0.3-4.7c0-12.6,0-25.2,0-37.8v-4.8c0-29.1,0-62.1,0.1-93.7c0-2.8-0.3-5.3-0.9-7.7
	h21.9c-0.6,2.4-0.9,5-0.9,8c0,68.8,0,132.8,0,195.8c0,3.3,0.4,6.2,1.1,8.8C2371.2,322,2367.1,322,2362.9,322z"/>
<path d="M1110.1,325.1c-5.7,0-11.4,0-17.2-0.1c2.7-5,2.7-10.1,2.7-12.7c0-46.5,0-93,0-139.6v-54.8c0-2.9,0-7.2-1.8-11.4
	c7.8,0,15.6-0.1,23.5-0.1c7.7,0,15.5,0,23.4,0.1c-1.3,3.8-1.2,8.6,2,14.6l6.1,11.2c7.1,13.1,14.2,26.1,21.3,39.2
	c10.1,18.6,20.2,37.1,30.3,55.7c2.9,5.3,5.8,10.5,8.8,16.1l12.1,22l9.2-13c0.5-0.7,0.9-1.2,1.3-1.8c0.9-1.2,1.9-2.5,2.8-4.1
	c19.4-35.2,37.3-67.7,54.6-99.2c3.5-6.3,6.9-12.7,10.3-19c1.4-2.6,2.8-5.2,4.2-7.9c2.9-5.4,2.9-10.1,1.7-13.9
	c8.7-0.1,17-0.1,25.1-0.1c7.9,0,15.7,0,23.3,0.1c-0.9,2.3-1.4,5.1-1.4,8.2c0,8.3,0,16.5,0,24.8v11.1v35.3c0,42.4,0,84.9,0,127.3
	c0,2.5,0,7.1,2.4,11.7c-7.9,0.1-15.6,0.1-22.4,0.1h-9c1.4-2.7,2.1-5.8,2.1-9.4c-0.1-34.5-0.1-69.6-0.1-103.5c0-13.7,0-27.4,0-41.2
	c0-1.3-0.1-2.5-0.3-3.8c-0.1-0.6-0.1-1.3-0.2-2.2l-3-32.7l-20.8,38.1c-3.4,6.2-6.6,12.1-9.8,18c-19.2,35.4-38.4,70.7-57.6,106.1
	c-1.9,3.6-3.8,7.1-5.7,10.7c-2.3,4.2-4.6,8.6-6.9,12.9c-5.3-10.2-10.6-20.6-15.7-30.6c-1.9-3.6-3.7-7.3-5.6-10.9l-14-27.5
	c-12.5-24.5-25-48.9-37.5-73.4c-1.5-3-3.2-5.9-4.8-8.7c-0.7-1.2-1.4-2.5-2.1-3.7l-4-7.1l-8.8,2.8l-7,2.2v42.6c0,35.7,0,72.6,0,108.9
	c0,2.6,0,7.7,2.7,12.5C1119.6,325.1,1114.9,325.1,1110.1,325.1z"/>
<path d="M1566.4,324.6c-25.5-0.2-51.9-5.6-85.4-17.6c-1.4-0.5-2.9-1.1-4.3-1.6l-0.1-0.1c-3.3-1.3-6.8-2.6-10.6-3.7
	c-1.1-0.3-2.5-0.6-4.1-0.8c3.1-7.6,6.2-15.4,9.7-23.6c5.6,8.2,14.3,12.6,18.9,15c20.1,10.3,41.4,14.6,57.8,17.2
	c6.8,1.1,13.8,1.6,20.6,1.6c16,0,32-3.1,47.5-9.1c6.8-2.7,12.4-6.9,16.5-10.4c8.3-6.9,12.4-18.1,10.6-29.2
	c-1.8-11.3-9.2-20.2-20.3-24.6c-16.1-6.3-32.4-8.7-48.3-11l-2.8-0.4c-5.4-0.8-10.8-1.5-16.1-2.1c-19.6-2.5-38-4.8-55.1-11.7
	c-9.3-3.8-18-8.7-25.1-14.4c-9.5-7.6-12.9-18.9-10.6-35.7c3-22.5,16.4-37.6,42-47.2c15.2-5.7,31.5-7.3,44.1-8
	c4.2-0.2,8.4-0.4,12.5-0.4c19.8,0,37.8,2.7,55.2,8.2c10.4,3.3,21,8,31.2,12.5l3.1,1.4c4.3,1.9,8.2,3,11.9,3.3
	c-1.1,2-3.6,6.7-3.6,6.7c-2.2,4.1-4.4,8.3-6.7,12.4c-5.3-7-12.8-10.7-18.6-13.5c-17.6-8.6-38-13.7-62.1-15.6
	c-5.9-0.5-11.3-0.7-16.3-0.7c-12.4,0-23.3,1.3-33.6,4.1c-5.1,1.4-12.7,4.1-19.6,9.3c-10,7.4-15,19.1-13.2,30.6
	c1.8,11.1,9.6,20.1,21,23.9c14,4.7,28.5,7.4,42.5,10l2.4,0.5c9.5,1.8,19.1,3.3,28.4,4.8c12.1,1.9,24.7,3.9,36.7,6.4
	c15.3,3.2,28.2,10,38.3,20.1c5.9,6,9,13.3,9.8,23.3c2.3,28.8-11,48-41.8,60.6c-11.4,4.6-24.3,7.1-41.7,8c-4.9,0.3-9.8,0.6-14.5,0.9
	C1572.5,324.2,1568.3,324.5,1566.4,324.6z"/>
<path d="M1901.4,322.6c-23,0-42.6-2.8-60-8.7c-14.1-4.7-25.1-11-33.8-19.3c-12.4-11.9-18.8-25.9-19.1-41.8
	c-0.3-15.4-0.2-31.2-0.2-46.5c0-6.9,0.1-13.8,0.1-20.7v-23.3c0-14.9,0-29.7,0-44.6c0-3.5-0.3-6.4-1-9c3.2,0,6.5,0,10.1,0
	c3.7,0,11.7,0,16.8,0c-0.7,2.5-1,5.3-1,8.3c0.1,28,0.1,56.4,0.1,83.9c0,13.1,0,26.2,0,39.4c0,25.2,15.8,48.6,39.2,58
	c14.5,5.9,30.1,8.7,47.9,8.7c3.8,0,7.7-0.1,11.7-0.4c15-1,30.9-3,45.9-11.6c21.4-12.2,32.8-30.9,33-54c0.3-30.2,0.3-60.9,0.2-90.5
	c0-11.3-0.1-22.6-0.1-33.9c0-2.9-0.3-5.5-0.9-7.8c4.4,0,8.8,0,13.1,0c4.5,0,9,0,13.5,0c-0.5,2.3-0.8,4.9-0.8,7.9
	c0,12.3,0,24.7-0.1,37c-0.1,30-0.1,61.1,0.2,91.9c0.3,29.3-15.4,52.2-44.2,64.7c-17.7,7.6-37.6,11.5-62.9,12.1
	C1906.7,322.6,1904,322.6,1901.4,322.6z"/>
<path d="M813.8,322.5c-1.7-0.5-3.5-0.9-5.6-0.9c-11.8-0.2-23.5-0.2-32.4-0.2c-4,0-8,0-12,0H762c-4.6,0-9.2,0-13.7,0h-66.2
	c-22.4,0-44.8,0-67.2,0c0.7-2.7,1-6.1,1-10.4c0-64.5,0-129.1,0-193.6c0-3.4-0.2-6.2-0.7-8.6h28.7c-0.7,2.5-1,5.5-1,8.9
	c0,56.4,0,112.8,0,169.2c0,13.3,6.2,19.5,19.4,19.5c10.1,0,20.3,0,30.4,0h37h33.1c13.3,0,23.4,0,32.9-0.1c4.7,0,9.2-0.6,12.9-1.2
	c1.8-0.3,3.5-0.7,5.1-1.3C813.8,309.5,813.8,315.9,813.8,322.5z"/>
<path d="M924.4,321.9c0.9-3.1,1.3-6.8,1.3-11.4c0-63.5,0-127.1,0-190.6c0-4.3-0.3-7.7-1.1-10.5h29.1c-0.7,2.8-1,6.2-1,10.5
	c0,63.7,0,127.4,0,191.1c0,4.5,0.4,8,1.2,10.9H924.4z"/>
</svg>
